<?xml version="1.0" encoding="UTF-8"?>
<svg id="Layer_1" data-name="Layer 1" xmlns="http://www.w3.org/2000/svg" viewBox="0 0 214.51 36.36">
  <defs>
    <style>
      .cls-1 {
        fill: #fff;
      }

      .cls-2 {
        fill: #999;
      }

      .cls-3 {
        fill: #083248;
      }

      .cls-4 {
        fill: #917a3e;
      }
    </style>
  </defs>
  <path class="cls-2" d="M18.76,36.35c8.76-.27,13.16-5.05,15.38-9.95,2.29-5.07-1.42-10.82-6.99-10.82-.92,0-1.76-.5-2.22-1.29-1.44-2.49-4.21-4.11-7.34-3.88-3.82.28-6.91,3.39-7.18,7.21-.32,4.55,3.29,8.35,7.77,8.35,2.89,0,5.42-1.58,6.76-3.93.45-.79,1.32-1.27,2.23-1.27,2.01,0,3.25,2.19,2.23,3.93-2.38,4.08-6.93,6.76-12.06,6.44-6.56-.41-11.83-5.77-12.14-12.34-.35-7.44,5.61-13.61,12.97-13.61,3.46,0,6.71,1.34,9.16,3.78.79.79,1.99,1.04,2.98.53,1.69-.86,1.92-2.97.71-4.19C27.4,1.69,22.51-.21,17.34.02,8.13.43.75,7.57.05,16.77c-.82,10.85,7.95,19.91,18.7,19.58"/>
  <path class="cls-2" d="M20.76,18.52c-.15,1.16-1.08,2.09-2.24,2.24-1.7.22-3.13-1.22-2.91-2.91.15-1.16,1.08-2.09,2.24-2.24,1.7-.22,3.13,1.22,2.91,2.91Z"/>
  <path class="cls-3" d="M17.84,15.61c-1.16.15-2.09,1.08-2.24,2.24-.22,1.7,1.22,3.13,2.91,2.91,1.16-.15,2.09-1.08,2.24-2.24.22-1.7-1.22-3.13-2.91-2.91Z"/>
  <path class="cls-1" d="M18.76,36.35c8.76-.27,13.16-5.05,15.38-9.95,2.29-5.07-1.42-10.82-6.99-10.82-.92,0-1.76-.5-2.22-1.29-1.44-2.49-4.21-4.11-7.34-3.88-3.82.28-6.91,3.39-7.18,7.21-.32,4.55,3.29,8.35,7.77,8.35,2.89,0,5.42-1.58,6.76-3.93.45-.79,1.32-1.27,2.23-1.27,2.01,0,3.25,2.19,2.23,3.93-2.38,4.08-6.93,6.76-12.06,6.44-6.56-.41-11.83-5.77-12.14-12.34-.35-7.44,5.61-13.61,12.97-13.61,3.46,0,6.71,1.34,9.16,3.78.79.79,1.99,1.04,2.98.53,1.69-.86,1.92-2.97.71-4.19C27.4,1.69,22.51-.21,17.34.02,8.13.43.75,7.57.05,16.77c-.82,10.85,7.95,19.91,18.7,19.58"/>
  <path class="cls-1" d="M20.76,18.52c-.15,1.16-1.08,2.09-2.24,2.24-1.7.22-3.13-1.22-2.91-2.91.15-1.16,1.08-2.09,2.24-2.24,1.7-.22,3.13,1.22,2.91,2.91Z"/>
  <path class="cls-4" d="M20.76,18.52c-.15,1.16-1.08,2.09-2.24,2.24-1.7.22-3.13-1.22-2.91-2.91.15-1.16,1.08-2.09,2.24-2.24,1.7-.22,3.13,1.22,2.91,2.91Z"/>
  <g>
    <path class="cls-1" d="M150.33,22.02c-.61.4-1.31.6-2.09.6s-1.45-.19-2.07-.57c-.61-.38-1.09-.91-1.43-1.57-.34-.66-.51-1.43-.51-2.3s.17-1.64.51-2.31c.34-.67.81-1.19,1.4-1.57.6-.37,1.28-.56,2.04-.56s1.48.18,2.08.54c.36.21.67.48.94.79.33.39.89.51,1.36.31h0c.74-.31.96-1.25.44-1.86-.39-.46-.85-.84-1.39-1.15-1-.58-2.11-.87-3.36-.87s-2.38.29-3.36.85c-.98.57-1.74,1.36-2.3,2.36-.55,1-.83,2.16-.83,3.47s.28,2.47.83,3.47c.55,1,1.32,1.79,2.31,2.36.99.57,2.12.85,3.39.85s2.39-.31,3.38-.94c.58-.36,1.07-.81,1.47-1.34.47-.61.21-1.51-.51-1.8h0c-.49-.2-1.07-.06-1.39.37-.26.34-.57.63-.94.87Z"/>
    <path class="cls-1" d="M174.8,11.49c-1.04,0-1.93.26-2.67.77-.32.22-.6.48-.85.78-.15.18-.45.09-.47-.15h0c-.04-.62-.55-1.1-1.17-1.1h0c-.65,0-1.17.52-1.17,1.17v10.41c0,.65.52,1.17,1.17,1.17h.08c.65,0,1.17-.52,1.17-1.17v-5.46c0-1.33.29-2.36.87-3.09.58-.73,1.39-1.1,2.42-1.1.61.02,1.15.14,1.62.38.47.24.83.66,1.1,1.26.26.6.4,1.48.4,2.64v5.36c0,.65.52,1.17,1.17,1.17h.08c.65,0,1.17-.52,1.17-1.17v-6.13c0-1.96-.44-3.41-1.31-4.35-.88-.94-2.08-1.42-3.61-1.42Z"/>
    <path class="cls-1" d="M188.06,22.54c-.2.07-.39.1-.56.1-.6,0-1.05-.17-1.37-.5-.32-.33-.47-.81-.47-1.44v-6.55c0-.14.12-.26.26-.26h2.43c.52,0,.94-.42.94-.94v-.22c0-.52-.42-.94-.94-.94h-2.43c-.14,0-.26-.12-.26-.26v-2.78c0-.52-.42-.94-.94-.94h-.55c-.52,0-.94.42-.94.94v2.78c0,.14-.12.26-.26.26h-.97c-.52,0-.94.42-.94.94v.22c0,.52.42.94.94.94h.97c.14,0,.26.12.26.26v6.91c0,1.22.35,2.17,1.05,2.82.7.66,1.68.98,2.96.98.41,0,.81-.07,1.21-.2.14-.05.29-.11.44-.18.47-.22.67-.79.44-1.26l-.1-.2c-.21-.43-.71-.64-1.17-.49h0Z"/>
    <path class="cls-1" d="M193.71,13.33v-.41c0-.62-.5-1.12-1.12-1.12h-.19c-.62,0-1.12.5-1.12,1.12v10.53c0,.62.5,1.12,1.12,1.12h.19c.62,0,1.12-.5,1.12-1.12v-5.82c0-.88.22-1.59.65-2.11.43-.52,1-.89,1.68-1.12.39-.13.8-.22,1.22-.28.55-.07.97-.55.97-1.11h0c0-.73-.69-1.26-1.41-1.08-.42.11-.82.26-1.22.46-.54.28-1.02.65-1.43,1.11-.16.18-.46.07-.46-.17Z"/>
    <path class="cls-1" d="M207.33,12.18c-.81-.46-1.81-.69-3-.69-.88,0-1.66.13-2.34.4-.67.26-1.25.63-1.72,1.08-.08.08-.16.16-.24.25-.55.59-.31,1.54.45,1.82h0c.45.17.94.03,1.26-.33.23-.27.5-.48.8-.65.5-.27,1.08-.41,1.75-.41.71,0,1.29.16,1.72.48.43.32.76.8.97,1.42.11.31.19.67.24,1.07.02.16-.1.3-.26.3h-3.08c-1.57,0-2.79.34-3.66,1.03-.88.69-1.31,1.69-1.31,3,0,1.22.42,2.18,1.26,2.87.84.69,2.02,1.03,3.53,1.03,2.1,0,3.12-.97,3.48-1.43.06-.07.18-.04.18.06h0c.03.6.53,1.07,1.13,1.07h.07c.62,0,1.13-.5,1.13-1.13l.02-5.81c.02-1.34-.17-2.47-.57-3.38-.4-.91-1-1.59-1.81-2.05ZM206.88,21.03c-.28.54-.67.97-1.17,1.29-.5.32-1.1.48-1.8.48-.8,0-1.43-.17-1.88-.5-.45-.33-.68-.8-.68-1.39,0-.65.24-1.15.71-1.52.48-.37,1.3-.55,2.48-.55h2.49c.14,0,.26.12.26.26v.12c0,.66-.14,1.26-.42,1.8Z"/>
    <rect class="cls-1" x="212.08" y="6.7" width="2.42" height="17.86" rx="1.21" ry="1.21"/>
    <path class="cls-1" d="M164.3,18.69c1.44,0,2.46-1.38,2.06-2.77-.11-.37-.24-.72-.39-1.05-.5-1.08-1.2-1.91-2.09-2.5-.89-.59-1.92-.88-3.08-.88-1.24,0-2.34.29-3.3.85-.96.57-1.71,1.36-2.26,2.36-.54,1-.82,2.16-.82,3.47s.27,2.47.82,3.47c.54,1,1.29,1.79,2.25,2.36.95.57,2.05.85,3.29.85.92,0,1.75-.14,2.49-.41.74-.27,1.38-.66,1.93-1.16.17-.16.33-.32.48-.5.51-.58.31-1.49-.39-1.82l-.03-.02c-.49-.22-1.06-.07-1.4.34-.24.29-.51.54-.81.75-.55.39-1.25.59-2.08.59-.78,0-1.48-.18-2.09-.55-.61-.37-1.1-.88-1.45-1.53-.2-.36-.34-.77-.43-1.21-.07-.35.21-.67.56-.67h6.76ZM157.8,16.7c-.41,0-.68-.42-.52-.8.02-.05.04-.09.06-.14.31-.67.76-1.19,1.34-1.56.58-.37,1.27-.55,2.07-.55.75,0,1.39.19,1.93.57.54.38.94.95,1.22,1.7h0c.14.37-.14.77-.53.77h-5.57Z"/>
  </g>
  <g>
    <path class="cls-1" d="M52.13,13.16c0,.27-.33.39-.51.18-.29-.35-.62-.65-.99-.9-.81-.56-1.75-.84-2.83-.84-1.18,0-2.22.28-3.09.84-.88.56-1.57,1.33-2.06,2.32-.5.99-.74,2.16-.74,3.5s.25,2.42.74,3.41c.5.98,1.18,1.75,2.06,2.3.88.55,1.91.82,3.09.82,1.08,0,2.02-.27,2.83-.81.26-.17.5-.37.73-.59.29-.28.77-.07.77.33h0c0,1.06-.18,1.93-.54,2.61-.36.68-.85,1.18-1.48,1.5-.63.32-1.34.48-2.14.48-.68,0-1.3-.07-1.85-.2-.56-.13-1.04-.29-1.46-.47h-.01c-.54-.24-1.18,0-1.43.53v.03c-.28.56-.03,1.23.54,1.47.03.01.06.03.09.04.49.21,1.09.4,1.8.56.71.17,1.51.25,2.38.25,1.29,0,2.42-.26,3.41-.78.98-.52,1.76-1.29,2.32-2.31.57-1.02.85-2.28.85-3.77v-10.51c0-.69-.56-1.24-1.24-1.24h0c-.69,0-1.24.56-1.24,1.24h0ZM51.6,20.52c-.31.67-.74,1.2-1.28,1.59-.54.39-1.18.59-1.91.59s-1.44-.2-2.02-.59c-.58-.39-1.04-.92-1.38-1.59-.34-.67-.51-1.44-.51-2.31s.17-1.64.5-2.3c.33-.66.79-1.18,1.37-1.55.58-.37,1.26-.56,2.02-.56s1.37.19,1.92.56c.55.37.98.89,1.29,1.55.31.66.47,1.43.47,2.3s-.16,1.64-.47,2.31Z"/>
    <path class="cls-1" d="M66.06,18.71c0,1.36-.3,2.41-.89,3.16-.59.75-1.42,1.12-2.48,1.12-.61-.02-1.16-.15-1.65-.39-.49-.24-.87-.68-1.14-1.31-.27-.63-.4-1.52-.4-2.69v-5.5c0-.66-.53-1.19-1.19-1.19h-.11c-.66,0-1.19.53-1.19,1.19v6.28c0,1.98.45,3.46,1.34,4.44.9.98,2.13,1.46,3.69,1.46,1.06,0,1.97-.26,2.73-.78.32-.22.61-.49.87-.8.16-.19.46-.1.48.15h0c.04.63.56,1.12,1.18,1.12h0c.66,0,1.19-.53,1.19-1.19v-10.68c0-.66-.53-1.19-1.19-1.19h-.08c-.66,0-1.19.53-1.19,1.19v5.6Z"/>
    <g>
      <path class="cls-1" d="M72.33,24.98h.02c.68,0,1.23-.55,1.23-1.23l.02-10.6c0-.68-.55-1.23-1.23-1.23h0c-.68,0-1.23.55-1.23,1.22l-.04,10.6c0,.68.55,1.23,1.23,1.23Z"/>
      <path class="cls-1" d="M72.35,6.39c-.34,0-.63.12-.88.36-.25.24-.37.54-.37.89s.12.63.37.89c.25.26.54.38.88.38s.65-.13.89-.38c.24-.26.36-.55.36-.89s-.12-.65-.36-.89-.54-.36-.89-.36Z"/>
    </g>
    <path class="cls-1" d="M86.02,12.99c0,.31-.38.45-.59.22-.25-.28-.53-.53-.83-.74-.81-.57-1.76-.86-2.86-.86-1.18,0-2.22.29-3.09.86-.88.57-1.57,1.37-2.06,2.39-.5,1.02-.74,2.22-.74,3.59s.25,2.55.74,3.58c.5,1.03,1.18,1.83,2.06,2.4.88.57,1.91.86,3.09.86,1.1,0,2.05-.29,2.86-.86.32-.23.62-.5.88-.8.2-.23.58-.11.6.2h0c.03.64.56,1.15,1.2,1.15h0c.66,0,1.2-.54,1.2-1.2V7.9c0-.66-.54-1.2-1.2-1.2h-.05c-.66,0-1.2.54-1.2,1.2v5.09ZM84.25,22.46c-.56.39-1.2.59-1.93.59s-1.45-.2-2.04-.59c-.59-.39-1.06-.93-1.4-1.62-.34-.69-.51-1.48-.51-2.39s.17-1.7.5-2.39c.33-.69.79-1.23,1.38-1.62.59-.39,1.27-.59,2.04-.59s1.4.2,1.96.59c.56.39.99.93,1.31,1.62.31.69.47,1.48.47,2.39s-.16,1.7-.47,2.39c-.31.69-.75,1.23-1.31,1.62Z"/>
    <path class="cls-1" d="M100.48,18.97c1.47,0,2.52-1.42,2.11-2.83-.11-.38-.24-.73-.4-1.07-.51-1.11-1.23-1.96-2.14-2.56-.91-.6-1.96-.9-3.15-.9-1.27,0-2.4.29-3.38.87-.98.58-1.75,1.39-2.31,2.42-.56,1.03-.84,2.21-.84,3.55s.28,2.52.84,3.55c.56,1.03,1.32,1.83,2.3,2.42.97.58,2.1.87,3.37.87.94,0,1.79-.14,2.55-.42.76-.28,1.41-.67,1.97-1.19.18-.16.34-.33.49-.51.52-.6.32-1.53-.4-1.86l-.04-.02c-.5-.23-1.08-.08-1.43.35-.24.29-.52.55-.83.77-.57.4-1.28.6-2.13.6-.8,0-1.51-.19-2.14-.56-.63-.37-1.12-.9-1.49-1.57-.2-.37-.35-.79-.44-1.24-.07-.35.21-.68.57-.68h6.92ZM93.83,16.93c-.42,0-.69-.43-.53-.81.02-.05.04-.09.06-.14.32-.69.78-1.22,1.37-1.59.59-.37,1.3-.56,2.12-.56.77,0,1.42.2,1.97.59.55.39.97.97,1.25,1.74h0c.14.38-.14.78-.54.78h-5.7Z"/>
    <rect class="cls-1" x="104.57" y="6.7" width="2.48" height="18.28" rx="1.24" ry="1.24"/>
    <path class="cls-1" d="M121.03,11.61c-1.06,0-1.97.26-2.73.78-.32.22-.62.49-.87.8-.16.19-.46.1-.48-.15h0c-.04-.63-.56-1.12-1.2-1.12h0c-.66,0-1.2.54-1.2,1.2v10.66c0,.66.54,1.2,1.2,1.2h.08c.66,0,1.2-.54,1.2-1.2v-5.59c0-1.36.3-2.41.89-3.16.59-.75,1.42-1.12,2.48-1.12.63.02,1.18.15,1.66.39.48.24.85.67,1.12,1.29.27.62.4,1.52.4,2.7v5.48c0,.66.54,1.2,1.2,1.2h.08c.66,0,1.2-.54,1.2-1.2v-6.27c0-2-.45-3.49-1.34-4.45-.9-.97-2.13-1.45-3.69-1.45Z"/>
    <path class="cls-1" d="M138.07,18.97c1.47,0,2.52-1.42,2.11-2.83-.11-.38-.24-.73-.4-1.07-.51-1.11-1.23-1.96-2.14-2.56-.91-.6-1.96-.9-3.15-.9-1.27,0-2.4.29-3.38.87-.98.58-1.75,1.39-2.31,2.42-.56,1.03-.84,2.21-.84,3.55s.28,2.52.84,3.55c.56,1.03,1.32,1.83,2.3,2.42.97.58,2.1.87,3.37.87.94,0,1.79-.14,2.55-.42.76-.28,1.41-.67,1.97-1.19.18-.16.34-.33.49-.51.52-.6.32-1.53-.4-1.86l-.04-.02c-.5-.23-1.08-.08-1.43.35-.24.29-.52.55-.83.77-.57.4-1.28.6-2.13.6-.8,0-1.51-.19-2.14-.56-.63-.37-1.12-.9-1.49-1.57-.2-.37-.35-.79-.44-1.24-.07-.35.21-.68.57-.68h6.92ZM131.43,16.93c-.42,0-.69-.43-.53-.81.02-.05.04-.09.06-.14.32-.69.78-1.22,1.37-1.59.59-.37,1.3-.56,2.12-.56.77,0,1.42.2,1.97.59.55.39.97.97,1.25,1.74h0c.14.38-.14.78-.54.78h-5.7Z"/>
    <g>
      <path class="cls-1" d="M110.87,24.98h.02c.68,0,1.23-.55,1.23-1.23l.02-10.6c0-.68-.55-1.23-1.23-1.23h0c-.68,0-1.23.55-1.23,1.22l-.04,10.6c0,.68.55,1.23,1.23,1.23Z"/>
      <path class="cls-1" d="M110.89,6.39c-.34,0-.63.12-.88.36-.25.24-.37.54-.37.89s.12.63.37.89c.25.26.54.38.88.38s.65-.13.89-.38c.24-.26.36-.55.36-.89s-.12-.65-.36-.89-.54-.36-.89-.36Z"/>
    </g>
  </g>
</svg>